# xmcd
#
# Track frame offsets:
#	182
#	12640
#	30200
#	42352
#	52365
#	69255
#	83982
#	96965
#	114657
#	127130
#	141922
#	153082
#	165190
#	178702
#
# Disc length: 2580 seconds
#
# Revision: 3
# Processed by: cddbd v1.5.2PL0 Copyright (c) Steve Scherf et al.
# Submitted via: audiograbber 1.83.01
#
DISCID=ba0a120e
DTITLE=Lolita - Seemann, Deine Heimat Ist Das Meer
DYEAR=1992
DGENRE=Schlager
TTITLE0=Seemann, Deine Heimat ist das Meer
TTITLE1=Rolling Home
TTITLE2=Unter der roten Laterne von St. Pauli
TTITLE3=Fahr' mit in die Ferne, mein blonder Matrose
TTITLE4=Der Hamburger Viermaster (Blow Boys, oh blow)
TTITLE5=Good Night, Sailors
TTITLE6=John, halt das Ruder
TTITLE7=Muﬂ i denn zum St‰dtele hinaus - F‰llt Dir der Abschied noch so schwer
TTITLE8=Eine Seefahrt, die ist lustig (Ahoi)
TTITLE9=My Bonnie lies over the Ocean
TTITLE10=Captain Brown - Es war einmal ein Segelschiff
TTITLE11=Was soll man tun, ist der Maat betrunken
TTITLE12=Weites Meer (Deep Blue Sea)
TTITLE13=Ein Mann, der sich Columbus nannt' - Columbus halt Dich ran
EXTD=EAN9002986522294
EXTT0=
EXTT1=
EXTT2=
EXTT3=
EXTT4=
EXTT5=
EXTT6=
EXTT7=
EXTT8=
EXTT9=
EXTT10=
EXTT11=
EXTT12=
EXTT13=
PLAYORDER=
